<mxfile host="app.diagrams.net" agent="Mozilla/5.0 (Windows NT 10.0; Win64; x64; rv:138.0) Gecko/20100101 Firefox/138.0" version="27.0.2" pages="3">
  <diagram name="UML" id="PEUDn40IMlNXKtg8PIGT">
    <mxGraphModel dx="1869" dy="536" grid="0" gridSize="10" guides="1" tooltips="1" connect="1" arrows="1" fold="1" page="1" pageScale="1" pageWidth="827" pageHeight="1169" math="0" shadow="0">
      <root>
        <mxCell id="0" />
        <mxCell id="1" parent="0" />
        <mxCell id="PGu7he5WaXHquFNx7t3q-1" value="Patient" style="swimlane;fontStyle=1;align=center;verticalAlign=top;childLayout=stackLayout;horizontal=1;startSize=26;horizontalStack=0;resizeParent=1;resizeParentMax=0;resizeLast=0;collapsible=1;marginBottom=0;whiteSpace=wrap;html=1;fontColor=light-dark(#FFFFFF,#FFFFFF);strokeColor=light-dark(#FFFFFF,#FFFFFF);fillColor=light-dark(#000000,#000000);" vertex="1" parent="1">
          <mxGeometry x="162" y="71" width="240" height="190" as="geometry" />
        </mxCell>
        <mxCell id="PGu7he5WaXHquFNx7t3q-2" value="&lt;div&gt;- first_name: string&lt;/div&gt;" style="text;strokeColor=light-dark(#FFFFFF,#FFFFFF);fillColor=light-dark(#000000,#000000);align=left;verticalAlign=top;spacingLeft=4;spacingRight=4;overflow=hidden;rotatable=0;points=[[0,0.5],[1,0.5]];portConstraint=eastwest;whiteSpace=wrap;html=1;fontColor=light-dark(#FFFFFF,#FFFFFF);" vertex="1" parent="PGu7he5WaXHquFNx7t3q-1">
          <mxGeometry y="26" width="240" height="26" as="geometry" />
        </mxCell>
        <mxCell id="PGu7he5WaXHquFNx7t3q-3" value="&lt;div&gt;- last_name: string&lt;/div&gt;" style="text;strokeColor=light-dark(#FFFFFF,#FFFFFF);fillColor=light-dark(#000000,#000000);align=left;verticalAlign=top;spacingLeft=4;spacingRight=4;overflow=hidden;rotatable=0;points=[[0,0.5],[1,0.5]];portConstraint=eastwest;whiteSpace=wrap;html=1;fontColor=light-dark(#FFFFFF,#FFFFFF);" vertex="1" parent="PGu7he5WaXHquFNx7t3q-1">
          <mxGeometry y="52" width="240" height="26" as="geometry" />
        </mxCell>
        <mxCell id="PGu7he5WaXHquFNx7t3q-4" value="&lt;div&gt;- pesel: string&lt;/div&gt;" style="text;strokeColor=light-dark(#FFFFFF,#FFFFFF);fillColor=light-dark(#000000,#000000);align=left;verticalAlign=top;spacingLeft=4;spacingRight=4;overflow=hidden;rotatable=0;points=[[0,0.5],[1,0.5]];portConstraint=eastwest;whiteSpace=wrap;html=1;fontColor=light-dark(#FFFFFF,#FFFFFF);" vertex="1" parent="PGu7he5WaXHquFNx7t3q-1">
          <mxGeometry y="78" width="240" height="26" as="geometry" />
        </mxCell>
        <mxCell id="PGu7he5WaXHquFNx7t3q-5" value="&lt;div&gt;- measurements: vector&amp;lt;Measurement&amp;gt;&lt;/div&gt;" style="text;strokeColor=light-dark(#FFFFFF,#FFFFFF);fillColor=light-dark(#000000,#000000);align=left;verticalAlign=top;spacingLeft=4;spacingRight=4;overflow=hidden;rotatable=0;points=[[0,0.5],[1,0.5]];portConstraint=eastwest;whiteSpace=wrap;html=1;fontColor=light-dark(#FFFFFF,#FFFFFF);" vertex="1" parent="PGu7he5WaXHquFNx7t3q-1">
          <mxGeometry y="104" width="240" height="26" as="geometry" />
        </mxCell>
        <mxCell id="PGu7he5WaXHquFNx7t3q-6" value="" style="line;strokeWidth=1;fillColor=light-dark(#000000,#000000);align=left;verticalAlign=middle;spacingTop=-1;spacingLeft=3;spacingRight=3;rotatable=0;labelPosition=right;points=[];portConstraint=eastwest;strokeColor=light-dark(#FFFFFF,#FFFFFF);fontColor=light-dark(#FFFFFF,#FFFFFF);" vertex="1" parent="PGu7he5WaXHquFNx7t3q-1">
          <mxGeometry y="130" width="240" height="8" as="geometry" />
        </mxCell>
        <mxCell id="PGu7he5WaXHquFNx7t3q-7" value="+ save_data()" style="text;strokeColor=light-dark(#FFFFFF,#FFFFFF);fillColor=light-dark(#000000,#000000);align=left;verticalAlign=top;spacingLeft=4;spacingRight=4;overflow=hidden;rotatable=0;points=[[0,0.5],[1,0.5]];portConstraint=eastwest;whiteSpace=wrap;html=1;fontColor=light-dark(#FFFFFF,#FFFFFF);" vertex="1" parent="PGu7he5WaXHquFNx7t3q-1">
          <mxGeometry y="138" width="240" height="26" as="geometry" />
        </mxCell>
        <mxCell id="PGu7he5WaXHquFNx7t3q-8" value="+ add_data()" style="text;strokeColor=light-dark(#FFFFFF,#FFFFFF);fillColor=light-dark(#000000,#000000);align=left;verticalAlign=top;spacingLeft=4;spacingRight=4;overflow=hidden;rotatable=0;points=[[0,0.5],[1,0.5]];portConstraint=eastwest;whiteSpace=wrap;html=1;fontColor=light-dark(#FFFFFF,#FFFFFF);" vertex="1" parent="PGu7he5WaXHquFNx7t3q-1">
          <mxGeometry y="164" width="240" height="26" as="geometry" />
        </mxCell>
        <mxCell id="PGu7he5WaXHquFNx7t3q-9" value="Measurements" style="swimlane;fontStyle=1;align=center;verticalAlign=top;childLayout=stackLayout;horizontal=1;startSize=26;horizontalStack=0;resizeParent=1;resizeParentMax=0;resizeLast=0;collapsible=1;marginBottom=0;whiteSpace=wrap;html=1;strokeColor=light-dark(#FFFFFF,#FFFFFF);fillColor=light-dark(#000000,#000000);fontColor=light-dark(#FFFFFF,#FFFFFF);" vertex="1" parent="1">
          <mxGeometry x="555" y="75" width="160" height="138" as="geometry" />
        </mxCell>
        <mxCell id="PGu7he5WaXHquFNx7t3q-10" value="- value: int" style="text;strokeColor=light-dark(#FFFFFF,#FFFFFF);fillColor=light-dark(#000000,#000000);align=left;verticalAlign=top;spacingLeft=4;spacingRight=4;overflow=hidden;rotatable=0;points=[[0,0.5],[1,0.5]];portConstraint=eastwest;whiteSpace=wrap;html=1;fontColor=light-dark(#FFFFFF,#FFFFFF);" vertex="1" parent="PGu7he5WaXHquFNx7t3q-9">
          <mxGeometry y="26" width="160" height="26" as="geometry" />
        </mxCell>
        <mxCell id="PGu7he5WaXHquFNx7t3q-11" value="- type: int" style="text;strokeColor=light-dark(#FFFFFF,#FFFFFF);fillColor=light-dark(#000000,#000000);align=left;verticalAlign=top;spacingLeft=4;spacingRight=4;overflow=hidden;rotatable=0;points=[[0,0.5],[1,0.5]];portConstraint=eastwest;whiteSpace=wrap;html=1;fontColor=light-dark(#FFFFFF,#FFFFFF);" vertex="1" parent="PGu7he5WaXHquFNx7t3q-9">
          <mxGeometry y="52" width="160" height="26" as="geometry" />
        </mxCell>
        <mxCell id="PGu7he5WaXHquFNx7t3q-12" value="- timestamp: date" style="text;strokeColor=light-dark(#FFFFFF,#FFFFFF);fillColor=light-dark(#000000,#000000);align=left;verticalAlign=top;spacingLeft=4;spacingRight=4;overflow=hidden;rotatable=0;points=[[0,0.5],[1,0.5]];portConstraint=eastwest;whiteSpace=wrap;html=1;fontColor=light-dark(#FFFFFF,#FFFFFF);" vertex="1" parent="PGu7he5WaXHquFNx7t3q-9">
          <mxGeometry y="78" width="160" height="26" as="geometry" />
        </mxCell>
        <mxCell id="PGu7he5WaXHquFNx7t3q-13" value="" style="line;strokeWidth=1;fillColor=light-dark(#000000,#000000);align=left;verticalAlign=middle;spacingTop=-1;spacingLeft=3;spacingRight=3;rotatable=0;labelPosition=right;points=[];portConstraint=eastwest;strokeColor=light-dark(#FFFFFF,#FFFFFF);fontColor=light-dark(#FFFFFF,#FFFFFF);" vertex="1" parent="PGu7he5WaXHquFNx7t3q-9">
          <mxGeometry y="104" width="160" height="8" as="geometry" />
        </mxCell>
        <mxCell id="PGu7he5WaXHquFNx7t3q-14" value="&lt;code data-end=&quot;813&quot; data-start=&quot;789&quot;&gt;simulate_measurement()&lt;/code&gt;" style="text;strokeColor=light-dark(#FFFFFF,#FFFFFF);fillColor=light-dark(#000000,#000000);align=left;verticalAlign=top;spacingLeft=4;spacingRight=4;overflow=hidden;rotatable=0;points=[[0,0.5],[1,0.5]];portConstraint=eastwest;whiteSpace=wrap;html=1;fontColor=light-dark(#FFFFFF,#FFFFFF);" vertex="1" parent="PGu7he5WaXHquFNx7t3q-9">
          <mxGeometry y="112" width="160" height="26" as="geometry" />
        </mxCell>
        <mxCell id="PGu7he5WaXHquFNx7t3q-15" value="SaveData" style="swimlane;fontStyle=1;align=center;verticalAlign=top;childLayout=stackLayout;horizontal=1;startSize=26;horizontalStack=0;resizeParent=1;resizeParentMax=0;resizeLast=0;collapsible=1;marginBottom=0;whiteSpace=wrap;html=1;fillColor=light-dark(#000000,#000000);fontColor=light-dark(#FFFFFF,#FFFFFF);strokeColor=light-dark(#FFFFFF,#FFFFFF);" vertex="1" parent="1">
          <mxGeometry x="-6" y="396" width="330" height="138" as="geometry" />
        </mxCell>
        <mxCell id="PGu7he5WaXHquFNx7t3q-16" value="- input_data: vector" style="text;strokeColor=light-dark(#FFFFFF,#FFFFFF);fillColor=light-dark(#000000,#000000);align=left;verticalAlign=top;spacingLeft=4;spacingRight=4;overflow=hidden;rotatable=0;points=[[0,0.5],[1,0.5]];portConstraint=eastwest;whiteSpace=wrap;html=1;fontColor=light-dark(#FFFFFF,#FFFFFF);" vertex="1" parent="PGu7he5WaXHquFNx7t3q-15">
          <mxGeometry y="26" width="330" height="26" as="geometry" />
        </mxCell>
        <mxCell id="PGu7he5WaXHquFNx7t3q-17" value="" style="line;strokeWidth=1;fillColor=light-dark(#000000,#000000);align=left;verticalAlign=middle;spacingTop=-1;spacingLeft=3;spacingRight=3;rotatable=0;labelPosition=right;points=[];portConstraint=eastwest;strokeColor=light-dark(#FFFFFF,#FFFFFF);fontColor=light-dark(#FFFFFF,#FFFFFF);" vertex="1" parent="PGu7he5WaXHquFNx7t3q-15">
          <mxGeometry y="52" width="330" height="8" as="geometry" />
        </mxCell>
        <mxCell id="PGu7he5WaXHquFNx7t3q-18" value="+ save_patient_data(Patient)" style="text;strokeColor=light-dark(#FFFFFF,#FFFFFF);fillColor=light-dark(#000000,#000000);align=left;verticalAlign=top;spacingLeft=4;spacingRight=4;overflow=hidden;rotatable=0;points=[[0,0.5],[1,0.5]];portConstraint=eastwest;whiteSpace=wrap;html=1;fontColor=light-dark(#FFFFFF,#FFFFFF);" vertex="1" parent="PGu7he5WaXHquFNx7t3q-15">
          <mxGeometry y="60" width="330" height="26" as="geometry" />
        </mxCell>
        <mxCell id="PGu7he5WaXHquFNx7t3q-19" value="+ save_all_data(std::vector&amp;lt;Patient&amp;gt;)" style="text;strokeColor=light-dark(#FFFFFF,#FFFFFF);fillColor=light-dark(#000000,#000000);align=left;verticalAlign=top;spacingLeft=4;spacingRight=4;overflow=hidden;rotatable=0;points=[[0,0.5],[1,0.5]];portConstraint=eastwest;whiteSpace=wrap;html=1;fontColor=light-dark(#FFFFFF,#FFFFFF);" vertex="1" parent="PGu7he5WaXHquFNx7t3q-15">
          <mxGeometry y="86" width="330" height="26" as="geometry" />
        </mxCell>
        <mxCell id="PGu7he5WaXHquFNx7t3q-20" value="+ load_data()" style="text;strokeColor=light-dark(#FFFFFF,#FFFFFF);fillColor=light-dark(#000000,#000000);align=left;verticalAlign=top;spacingLeft=4;spacingRight=4;overflow=hidden;rotatable=0;points=[[0,0.5],[1,0.5]];portConstraint=eastwest;whiteSpace=wrap;html=1;fontColor=light-dark(#FFFFFF,#FFFFFF);" vertex="1" parent="PGu7he5WaXHquFNx7t3q-15">
          <mxGeometry y="112" width="330" height="26" as="geometry" />
        </mxCell>
        <mxCell id="PGu7he5WaXHquFNx7t3q-21" value="DataManager" style="swimlane;fontStyle=1;align=center;verticalAlign=top;childLayout=stackLayout;horizontal=1;startSize=26;horizontalStack=0;resizeParent=1;resizeParentMax=0;resizeLast=0;collapsible=1;marginBottom=0;whiteSpace=wrap;html=1;strokeColor=light-dark(#FFFFFF,#FFFFFF);fillColor=light-dark(#000000,#000000);fontColor=light-dark(#FFFFFF,#FFFFFF);" vertex="1" parent="1">
          <mxGeometry x="551" y="432" width="160" height="60" as="geometry" />
        </mxCell>
        <mxCell id="PGu7he5WaXHquFNx7t3q-22" value="" style="line;strokeWidth=1;fillColor=light-dark(#000000,#000000);align=left;verticalAlign=middle;spacingTop=-1;spacingLeft=3;spacingRight=3;rotatable=0;labelPosition=right;points=[];portConstraint=eastwest;strokeColor=light-dark(#FFFFFF,#FFFFFF);fontColor=light-dark(#FFFFFF,#FFFFFF);" vertex="1" parent="PGu7he5WaXHquFNx7t3q-21">
          <mxGeometry y="26" width="160" height="8" as="geometry" />
        </mxCell>
        <mxCell id="PGu7he5WaXHquFNx7t3q-23" value="&lt;code data-end=&quot;813&quot; data-start=&quot;789&quot;&gt;+ save_to_file()&lt;/code&gt;" style="text;strokeColor=light-dark(#FFFFFF,#FFFFFF);fillColor=light-dark(#000000,#000000);align=left;verticalAlign=top;spacingLeft=4;spacingRight=4;overflow=hidden;rotatable=0;points=[[0,0.5],[1,0.5]];portConstraint=eastwest;whiteSpace=wrap;html=1;fontColor=light-dark(#FFFFFF,#FFFFFF);" vertex="1" parent="PGu7he5WaXHquFNx7t3q-21">
          <mxGeometry y="34" width="160" height="26" as="geometry" />
        </mxCell>
        <mxCell id="PGu7he5WaXHquFNx7t3q-24" value="AppManager" style="swimlane;fontStyle=1;align=center;verticalAlign=top;childLayout=stackLayout;horizontal=1;startSize=26;horizontalStack=0;resizeParent=1;resizeParentMax=0;resizeLast=0;collapsible=1;marginBottom=0;whiteSpace=wrap;html=1;strokeColor=light-dark(#FFFFFF,#FFFFFF);fillColor=light-dark(#000000,#000000);fontColor=light-dark(#FFFFFF,#FFFFFF);" vertex="1" parent="1">
          <mxGeometry x="273" y="627" width="248" height="190" as="geometry" />
        </mxCell>
        <mxCell id="PGu7he5WaXHquFNx7t3q-25" value="&lt;code data-end=&quot;813&quot; data-start=&quot;789&quot;&gt;+ patients: vector&amp;lt;Patient&amp;gt;&lt;/code&gt;" style="text;strokeColor=light-dark(#FFFFFF,#FFFFFF);fillColor=light-dark(#000000,#000000);align=left;verticalAlign=top;spacingLeft=4;spacingRight=4;overflow=hidden;rotatable=0;points=[[0,0.5],[1,0.5]];portConstraint=eastwest;whiteSpace=wrap;html=1;fontColor=light-dark(#FFFFFF,#FFFFFF);" vertex="1" parent="PGu7he5WaXHquFNx7t3q-24">
          <mxGeometry y="26" width="248" height="26" as="geometry" />
        </mxCell>
        <mxCell id="PGu7he5WaXHquFNx7t3q-26" value="" style="line;strokeWidth=1;fillColor=light-dark(#000000,#000000);align=left;verticalAlign=middle;spacingTop=-1;spacingLeft=3;spacingRight=3;rotatable=0;labelPosition=right;points=[];portConstraint=eastwest;strokeColor=light-dark(#FFFFFF,#FFFFFF);fontColor=light-dark(#FFFFFF,#FFFFFF);" vertex="1" parent="PGu7he5WaXHquFNx7t3q-24">
          <mxGeometry y="52" width="248" height="8" as="geometry" />
        </mxCell>
        <mxCell id="PGu7he5WaXHquFNx7t3q-27" value="&lt;code data-end=&quot;813&quot; data-start=&quot;789&quot;&gt;- add_patients()&lt;/code&gt;" style="text;strokeColor=light-dark(#FFFFFF,#FFFFFF);fillColor=light-dark(#000000,#000000);align=left;verticalAlign=top;spacingLeft=4;spacingRight=4;overflow=hidden;rotatable=0;points=[[0,0.5],[1,0.5]];portConstraint=eastwest;whiteSpace=wrap;html=1;fontColor=light-dark(#FFFFFF,#FFFFFF);" vertex="1" parent="PGu7he5WaXHquFNx7t3q-24">
          <mxGeometry y="60" width="248" height="26" as="geometry" />
        </mxCell>
        <mxCell id="PGu7he5WaXHquFNx7t3q-28" value="&lt;code data-end=&quot;813&quot; data-start=&quot;789&quot;&gt;- record_measurement()&lt;/code&gt;" style="text;strokeColor=light-dark(#FFFFFF,#FFFFFF);fillColor=light-dark(#000000,#000000);align=left;verticalAlign=top;spacingLeft=4;spacingRight=4;overflow=hidden;rotatable=0;points=[[0,0.5],[1,0.5]];portConstraint=eastwest;whiteSpace=wrap;html=1;fontColor=light-dark(#FFFFFF,#FFFFFF);" vertex="1" parent="PGu7he5WaXHquFNx7t3q-24">
          <mxGeometry y="86" width="248" height="26" as="geometry" />
        </mxCell>
        <mxCell id="PGu7he5WaXHquFNx7t3q-29" value="&lt;code data-end=&quot;813&quot; data-start=&quot;789&quot;&gt;- show_patient_data()&lt;/code&gt;" style="text;strokeColor=light-dark(#FFFFFF,#FFFFFF);fillColor=light-dark(#000000,#000000);align=left;verticalAlign=top;spacingLeft=4;spacingRight=4;overflow=hidden;rotatable=0;points=[[0,0.5],[1,0.5]];portConstraint=eastwest;whiteSpace=wrap;html=1;fontColor=light-dark(#FFFFFF,#FFFFFF);" vertex="1" parent="PGu7he5WaXHquFNx7t3q-24">
          <mxGeometry y="112" width="248" height="26" as="geometry" />
        </mxCell>
        <mxCell id="PGu7he5WaXHquFNx7t3q-30" value="&lt;code data-end=&quot;813&quot; data-start=&quot;789&quot;&gt;- save_and_exit()&lt;/code&gt;" style="text;strokeColor=light-dark(#FFFFFF,#FFFFFF);fillColor=light-dark(#000000,#000000);align=left;verticalAlign=top;spacingLeft=4;spacingRight=4;overflow=hidden;rotatable=0;points=[[0,0.5],[1,0.5]];portConstraint=eastwest;whiteSpace=wrap;html=1;fontColor=light-dark(#FFFFFF,#FFFFFF);" vertex="1" parent="PGu7he5WaXHquFNx7t3q-24">
          <mxGeometry y="138" width="248" height="26" as="geometry" />
        </mxCell>
        <mxCell id="PGu7he5WaXHquFNx7t3q-31" value="&lt;code data-end=&quot;813&quot; data-start=&quot;789&quot;&gt;+ run()&lt;/code&gt;" style="text;strokeColor=light-dark(#FFFFFF,#FFFFFF);fillColor=light-dark(#000000,#000000);align=left;verticalAlign=top;spacingLeft=4;spacingRight=4;overflow=hidden;rotatable=0;points=[[0,0.5],[1,0.5]];portConstraint=eastwest;whiteSpace=wrap;html=1;fontColor=light-dark(#FFFFFF,#FFFFFF);" vertex="1" parent="PGu7he5WaXHquFNx7t3q-24">
          <mxGeometry y="164" width="248" height="26" as="geometry" />
        </mxCell>
      </root>
    </mxGraphModel>
  </diagram>
  <diagram name="TEST CASES" id="ysQVzondZi2lt9kWz1B8">
    <mxGraphModel dx="1042" dy="536" grid="0" gridSize="10" guides="1" tooltips="1" connect="1" arrows="1" fold="1" page="1" pageScale="1" pageWidth="827" pageHeight="1169" background="light-dark(#000000,#000000)" math="0" shadow="0">
      <root>
        <mxCell id="0" />
        <mxCell id="1" parent="0" />
        <mxCell id="5gqId4jt-DwFvP9fltNF-23" value="" style="childLayout=tableLayout;recursiveResize=0;shadow=0;fillColor=none;strokeColor=light-dark(#FFFFFF,#FFFFFF);fontColor=default;" parent="1" vertex="1">
          <mxGeometry x="45" y="33" width="897" height="281" as="geometry" />
        </mxCell>
        <mxCell id="5gqId4jt-DwFvP9fltNF-24" value="" style="shape=tableRow;horizontal=0;startSize=0;swimlaneHead=0;swimlaneBody=0;top=0;left=0;bottom=0;right=0;dropTarget=0;collapsible=0;recursiveResize=0;expand=0;fontStyle=0;fillColor=none;strokeColor=light-dark(#FFFFFF,#FFFFFF);fontColor=default;" parent="5gqId4jt-DwFvP9fltNF-23" vertex="1">
          <mxGeometry width="897" height="47" as="geometry" />
        </mxCell>
        <mxCell id="5gqId4jt-DwFvP9fltNF-25" value="ID" style="connectable=0;recursiveResize=0;strokeColor=light-dark(#FFFFFF,#FFFFFF);fillColor=none;align=center;whiteSpace=wrap;html=1;fontColor=default;fontStyle=1;" parent="5gqId4jt-DwFvP9fltNF-24" vertex="1">
          <mxGeometry width="48" height="47" as="geometry">
            <mxRectangle width="48" height="47" as="alternateBounds" />
          </mxGeometry>
        </mxCell>
        <mxCell id="5gqId4jt-DwFvP9fltNF-26" value="Test description" style="connectable=0;recursiveResize=0;strokeColor=light-dark(#FFFFFF,#FFFFFF);fillColor=none;align=center;whiteSpace=wrap;html=1;fontColor=default;fontStyle=1;" parent="5gqId4jt-DwFvP9fltNF-24" vertex="1">
          <mxGeometry x="48" width="205" height="47" as="geometry">
            <mxRectangle width="205" height="47" as="alternateBounds" />
          </mxGeometry>
        </mxCell>
        <mxCell id="5gqId4jt-DwFvP9fltNF-27" value="Input" style="connectable=0;recursiveResize=0;strokeColor=light-dark(#FFFFFF,#FFFFFF);fillColor=none;align=center;whiteSpace=wrap;html=1;fontColor=default;fontStyle=1;" parent="5gqId4jt-DwFvP9fltNF-24" vertex="1">
          <mxGeometry x="253" width="182" height="47" as="geometry">
            <mxRectangle width="182" height="47" as="alternateBounds" />
          </mxGeometry>
        </mxCell>
        <mxCell id="5gqId4jt-DwFvP9fltNF-36" value="Result" style="connectable=0;recursiveResize=0;strokeColor=light-dark(#FFFFFF,#FFFFFF);fillColor=none;align=center;whiteSpace=wrap;html=1;fontColor=default;fontStyle=1;" parent="5gqId4jt-DwFvP9fltNF-24" vertex="1">
          <mxGeometry x="435" width="231" height="47" as="geometry">
            <mxRectangle width="231" height="47" as="alternateBounds" />
          </mxGeometry>
        </mxCell>
        <mxCell id="IhOs6YFQtIxiZEBbq8Mr-2" value="Test name" style="connectable=0;recursiveResize=0;strokeColor=light-dark(#FFFFFF,#FFFFFF);fillColor=none;align=center;whiteSpace=wrap;html=1;fontColor=default;fontStyle=1;" parent="5gqId4jt-DwFvP9fltNF-24" vertex="1">
          <mxGeometry x="666" width="231" height="47" as="geometry">
            <mxRectangle width="231" height="47" as="alternateBounds" />
          </mxGeometry>
        </mxCell>
        <mxCell id="5gqId4jt-DwFvP9fltNF-28" style="shape=tableRow;horizontal=0;startSize=0;swimlaneHead=0;swimlaneBody=0;top=0;left=0;bottom=0;right=0;dropTarget=0;collapsible=0;recursiveResize=0;expand=0;fontStyle=0;fillColor=none;strokeColor=light-dark(#FFFFFF,#FFFFFF);fontColor=default;" parent="5gqId4jt-DwFvP9fltNF-23" vertex="1">
          <mxGeometry y="47" width="897" height="46" as="geometry" />
        </mxCell>
        <mxCell id="5gqId4jt-DwFvP9fltNF-29" value="TC01" style="connectable=0;recursiveResize=0;strokeColor=light-dark(#FFFFFF,#FFFFFF);fillColor=none;align=center;whiteSpace=wrap;html=1;fontColor=default;" parent="5gqId4jt-DwFvP9fltNF-28" vertex="1">
          <mxGeometry width="48" height="46" as="geometry">
            <mxRectangle width="48" height="46" as="alternateBounds" />
          </mxGeometry>
        </mxCell>
        <mxCell id="5gqId4jt-DwFvP9fltNF-30" value="Add patient" style="connectable=0;recursiveResize=0;strokeColor=light-dark(#FFFFFF,#FFFFFF);fillColor=none;align=center;whiteSpace=wrap;html=1;fontColor=default;" parent="5gqId4jt-DwFvP9fltNF-28" vertex="1">
          <mxGeometry x="48" width="205" height="46" as="geometry">
            <mxRectangle width="205" height="46" as="alternateBounds" />
          </mxGeometry>
        </mxCell>
        <mxCell id="5gqId4jt-DwFvP9fltNF-31" value="First name, last name, PESEL" style="connectable=0;recursiveResize=0;strokeColor=light-dark(#FFFFFF,#FFFFFF);fillColor=none;align=center;whiteSpace=wrap;html=1;fontColor=default;" parent="5gqId4jt-DwFvP9fltNF-28" vertex="1">
          <mxGeometry x="253" width="182" height="46" as="geometry">
            <mxRectangle width="182" height="46" as="alternateBounds" />
          </mxGeometry>
        </mxCell>
        <mxCell id="5gqId4jt-DwFvP9fltNF-37" value="Patient add to the list" style="connectable=0;recursiveResize=0;strokeColor=light-dark(#FFFFFF,#FFFFFF);fillColor=none;align=center;whiteSpace=wrap;html=1;fontColor=default;" parent="5gqId4jt-DwFvP9fltNF-28" vertex="1">
          <mxGeometry x="435" width="231" height="46" as="geometry">
            <mxRectangle width="231" height="46" as="alternateBounds" />
          </mxGeometry>
        </mxCell>
        <mxCell id="IhOs6YFQtIxiZEBbq8Mr-3" value="test_add_patient" style="connectable=0;recursiveResize=0;strokeColor=light-dark(#FFFFFF,#FFFFFF);fillColor=none;align=center;whiteSpace=wrap;html=1;fontColor=default;" parent="5gqId4jt-DwFvP9fltNF-28" vertex="1">
          <mxGeometry x="666" width="231" height="46" as="geometry">
            <mxRectangle width="231" height="46" as="alternateBounds" />
          </mxGeometry>
        </mxCell>
        <mxCell id="5gqId4jt-DwFvP9fltNF-32" style="shape=tableRow;horizontal=0;startSize=0;swimlaneHead=0;swimlaneBody=0;top=0;left=0;bottom=0;right=0;dropTarget=0;collapsible=0;recursiveResize=0;expand=0;fontStyle=0;fillColor=none;strokeColor=light-dark(#FFFFFF,#FFFFFF);fontColor=default;" parent="5gqId4jt-DwFvP9fltNF-23" vertex="1">
          <mxGeometry y="93" width="897" height="47" as="geometry" />
        </mxCell>
        <mxCell id="5gqId4jt-DwFvP9fltNF-33" value="TC02" style="connectable=0;recursiveResize=0;strokeColor=light-dark(#FFFFFF,#FFFFFF);fillColor=none;align=center;whiteSpace=wrap;html=1;fontColor=default;" parent="5gqId4jt-DwFvP9fltNF-32" vertex="1">
          <mxGeometry width="48" height="47" as="geometry">
            <mxRectangle width="48" height="47" as="alternateBounds" />
          </mxGeometry>
        </mxCell>
        <mxCell id="5gqId4jt-DwFvP9fltNF-34" value="Save patient measurement" style="connectable=0;recursiveResize=0;strokeColor=light-dark(#FFFFFF,#FFFFFF);fillColor=none;align=center;whiteSpace=wrap;html=1;fontColor=default;" parent="5gqId4jt-DwFvP9fltNF-32" vertex="1">
          <mxGeometry x="48" width="205" height="47" as="geometry">
            <mxRectangle width="205" height="47" as="alternateBounds" />
          </mxGeometry>
        </mxCell>
        <mxCell id="5gqId4jt-DwFvP9fltNF-35" value="PESEL, type, value" style="connectable=0;recursiveResize=0;strokeColor=light-dark(#FFFFFF,#FFFFFF);fillColor=none;align=center;whiteSpace=wrap;html=1;fontColor=default;" parent="5gqId4jt-DwFvP9fltNF-32" vertex="1">
          <mxGeometry x="253" width="182" height="47" as="geometry">
            <mxRectangle width="182" height="47" as="alternateBounds" />
          </mxGeometry>
        </mxCell>
        <mxCell id="5gqId4jt-DwFvP9fltNF-38" value="Measurement add to the list" style="connectable=0;recursiveResize=0;strokeColor=light-dark(#FFFFFF,#FFFFFF);fillColor=none;align=center;whiteSpace=wrap;html=1;fontColor=default;" parent="5gqId4jt-DwFvP9fltNF-32" vertex="1">
          <mxGeometry x="435" width="231" height="47" as="geometry">
            <mxRectangle width="231" height="47" as="alternateBounds" />
          </mxGeometry>
        </mxCell>
        <mxCell id="IhOs6YFQtIxiZEBbq8Mr-4" value="test_add_measurement" style="connectable=0;recursiveResize=0;strokeColor=light-dark(#FFFFFF,#FFFFFF);fillColor=none;align=center;whiteSpace=wrap;html=1;fontColor=default;" parent="5gqId4jt-DwFvP9fltNF-32" vertex="1">
          <mxGeometry x="666" width="231" height="47" as="geometry">
            <mxRectangle width="231" height="47" as="alternateBounds" />
          </mxGeometry>
        </mxCell>
        <mxCell id="5gqId4jt-DwFvP9fltNF-39" style="shape=tableRow;horizontal=0;startSize=0;swimlaneHead=0;swimlaneBody=0;top=0;left=0;bottom=0;right=0;dropTarget=0;collapsible=0;recursiveResize=0;expand=0;fontStyle=0;fillColor=none;strokeColor=light-dark(#FFFFFF,#FFFFFF);fontColor=default;" parent="5gqId4jt-DwFvP9fltNF-23" vertex="1">
          <mxGeometry y="140" width="897" height="47" as="geometry" />
        </mxCell>
        <mxCell id="5gqId4jt-DwFvP9fltNF-40" value="&lt;div&gt;TC03&lt;/div&gt;" style="connectable=0;recursiveResize=0;strokeColor=light-dark(#FFFFFF,#FFFFFF);fillColor=none;align=center;whiteSpace=wrap;html=1;fontColor=default;" parent="5gqId4jt-DwFvP9fltNF-39" vertex="1">
          <mxGeometry width="48" height="47" as="geometry">
            <mxRectangle width="48" height="47" as="alternateBounds" />
          </mxGeometry>
        </mxCell>
        <mxCell id="5gqId4jt-DwFvP9fltNF-41" value="Show patient data" style="connectable=0;recursiveResize=0;strokeColor=light-dark(#FFFFFF,#FFFFFF);fillColor=none;align=center;whiteSpace=wrap;html=1;fontColor=default;" parent="5gqId4jt-DwFvP9fltNF-39" vertex="1">
          <mxGeometry x="48" width="205" height="47" as="geometry">
            <mxRectangle width="205" height="47" as="alternateBounds" />
          </mxGeometry>
        </mxCell>
        <mxCell id="5gqId4jt-DwFvP9fltNF-42" value="PESEL" style="connectable=0;recursiveResize=0;strokeColor=light-dark(#FFFFFF,#FFFFFF);fillColor=none;align=center;whiteSpace=wrap;html=1;fontColor=default;" parent="5gqId4jt-DwFvP9fltNF-39" vertex="1">
          <mxGeometry x="253" width="182" height="47" as="geometry">
            <mxRectangle width="182" height="47" as="alternateBounds" />
          </mxGeometry>
        </mxCell>
        <mxCell id="5gqId4jt-DwFvP9fltNF-43" value="Show measurements and patient data" style="connectable=0;recursiveResize=0;strokeColor=light-dark(#FFFFFF,#FFFFFF);fillColor=none;align=center;whiteSpace=wrap;html=1;fontColor=default;" parent="5gqId4jt-DwFvP9fltNF-39" vertex="1">
          <mxGeometry x="435" width="231" height="47" as="geometry">
            <mxRectangle width="231" height="47" as="alternateBounds" />
          </mxGeometry>
        </mxCell>
        <mxCell id="IhOs6YFQtIxiZEBbq8Mr-5" value="test_show_patient_data" style="connectable=0;recursiveResize=0;strokeColor=light-dark(#FFFFFF,#FFFFFF);fillColor=none;align=center;whiteSpace=wrap;html=1;fontColor=default;" parent="5gqId4jt-DwFvP9fltNF-39" vertex="1">
          <mxGeometry x="666" width="231" height="47" as="geometry">
            <mxRectangle width="231" height="47" as="alternateBounds" />
          </mxGeometry>
        </mxCell>
        <mxCell id="5gqId4jt-DwFvP9fltNF-44" style="shape=tableRow;horizontal=0;startSize=0;swimlaneHead=0;swimlaneBody=0;top=0;left=0;bottom=0;right=0;dropTarget=0;collapsible=0;recursiveResize=0;expand=0;fontStyle=0;fillColor=none;strokeColor=light-dark(#FFFFFF,#FFFFFF);fontColor=default;" parent="5gqId4jt-DwFvP9fltNF-23" vertex="1">
          <mxGeometry y="187" width="897" height="47" as="geometry" />
        </mxCell>
        <mxCell id="5gqId4jt-DwFvP9fltNF-45" value="TC04" style="connectable=0;recursiveResize=0;strokeColor=light-dark(#FFFFFF,#FFFFFF);fillColor=none;align=center;whiteSpace=wrap;html=1;fontColor=default;" parent="5gqId4jt-DwFvP9fltNF-44" vertex="1">
          <mxGeometry width="48" height="47" as="geometry">
            <mxRectangle width="48" height="47" as="alternateBounds" />
          </mxGeometry>
        </mxCell>
        <mxCell id="5gqId4jt-DwFvP9fltNF-46" value="Try to read non existing data (PESEL)" style="connectable=0;recursiveResize=0;strokeColor=light-dark(#FFFFFF,#FFFFFF);fillColor=none;align=center;whiteSpace=wrap;html=1;fontColor=default;" parent="5gqId4jt-DwFvP9fltNF-44" vertex="1">
          <mxGeometry x="48" width="205" height="47" as="geometry">
            <mxRectangle width="205" height="47" as="alternateBounds" />
          </mxGeometry>
        </mxCell>
        <mxCell id="5gqId4jt-DwFvP9fltNF-47" value="Incorrect PESEL" style="connectable=0;recursiveResize=0;strokeColor=light-dark(#FFFFFF,#FFFFFF);fillColor=none;align=center;whiteSpace=wrap;html=1;fontColor=default;" parent="5gqId4jt-DwFvP9fltNF-44" vertex="1">
          <mxGeometry x="253" width="182" height="47" as="geometry">
            <mxRectangle width="182" height="47" as="alternateBounds" />
          </mxGeometry>
        </mxCell>
        <mxCell id="5gqId4jt-DwFvP9fltNF-48" value="Output: &quot;Cannot find patient&quot;" style="connectable=0;recursiveResize=0;strokeColor=light-dark(#FFFFFF,#FFFFFF);fillColor=none;align=center;whiteSpace=wrap;html=1;fontColor=default;" parent="5gqId4jt-DwFvP9fltNF-44" vertex="1">
          <mxGeometry x="435" width="231" height="47" as="geometry">
            <mxRectangle width="231" height="47" as="alternateBounds" />
          </mxGeometry>
        </mxCell>
        <mxCell id="IhOs6YFQtIxiZEBbq8Mr-6" style="connectable=0;recursiveResize=0;strokeColor=light-dark(#FFFFFF,#FFFFFF);fillColor=none;align=center;whiteSpace=wrap;html=1;fontColor=default;" parent="5gqId4jt-DwFvP9fltNF-44" vertex="1">
          <mxGeometry x="666" width="231" height="47" as="geometry">
            <mxRectangle width="231" height="47" as="alternateBounds" />
          </mxGeometry>
        </mxCell>
        <mxCell id="5gqId4jt-DwFvP9fltNF-49" style="shape=tableRow;horizontal=0;startSize=0;swimlaneHead=0;swimlaneBody=0;top=0;left=0;bottom=0;right=0;dropTarget=0;collapsible=0;recursiveResize=0;expand=0;fontStyle=0;fillColor=none;strokeColor=light-dark(#FFFFFF,#FFFFFF);fontColor=default;" parent="5gqId4jt-DwFvP9fltNF-23" vertex="1">
          <mxGeometry y="234" width="897" height="47" as="geometry" />
        </mxCell>
        <mxCell id="5gqId4jt-DwFvP9fltNF-50" value="TC05" style="connectable=0;recursiveResize=0;strokeColor=light-dark(#FFFFFF,#FFFFFF);fillColor=none;align=center;whiteSpace=wrap;html=1;fontColor=default;" parent="5gqId4jt-DwFvP9fltNF-49" vertex="1">
          <mxGeometry width="48" height="47" as="geometry">
            <mxRectangle width="48" height="47" as="alternateBounds" />
          </mxGeometry>
        </mxCell>
        <mxCell id="5gqId4jt-DwFvP9fltNF-51" value="Save to .txt file" style="connectable=0;recursiveResize=0;strokeColor=light-dark(#FFFFFF,#FFFFFF);fillColor=none;align=center;whiteSpace=wrap;html=1;fontColor=default;" parent="5gqId4jt-DwFvP9fltNF-49" vertex="1">
          <mxGeometry x="48" width="205" height="47" as="geometry">
            <mxRectangle width="205" height="47" as="alternateBounds" />
          </mxGeometry>
        </mxCell>
        <mxCell id="5gqId4jt-DwFvP9fltNF-52" style="connectable=0;recursiveResize=0;strokeColor=light-dark(#FFFFFF,#FFFFFF);fillColor=none;align=center;whiteSpace=wrap;html=1;fontColor=default;" parent="5gqId4jt-DwFvP9fltNF-49" vertex="1">
          <mxGeometry x="253" width="182" height="47" as="geometry">
            <mxRectangle width="182" height="47" as="alternateBounds" />
          </mxGeometry>
        </mxCell>
        <mxCell id="5gqId4jt-DwFvP9fltNF-53" value="Create/update file with patients" style="connectable=0;recursiveResize=0;strokeColor=light-dark(#FFFFFF,#FFFFFF);fillColor=none;align=center;whiteSpace=wrap;html=1;fontColor=default;" parent="5gqId4jt-DwFvP9fltNF-49" vertex="1">
          <mxGeometry x="435" width="231" height="47" as="geometry">
            <mxRectangle width="231" height="47" as="alternateBounds" />
          </mxGeometry>
        </mxCell>
        <mxCell id="IhOs6YFQtIxiZEBbq8Mr-7" value="test_save_to_file" style="connectable=0;recursiveResize=0;strokeColor=light-dark(#FFFFFF,#FFFFFF);fillColor=none;align=center;whiteSpace=wrap;html=1;fontColor=default;" parent="5gqId4jt-DwFvP9fltNF-49" vertex="1">
          <mxGeometry x="666" width="231" height="47" as="geometry">
            <mxRectangle width="231" height="47" as="alternateBounds" />
          </mxGeometry>
        </mxCell>
        <mxCell id="IhOs6YFQtIxiZEBbq8Mr-1" value="&lt;div&gt;TDD (TEST DRIVEN DEVELOPMENT)&amp;nbsp;&lt;/div&gt;&lt;div&gt;Programowanie sterowane testami. Czyli najpierw piszesz test, który nie przechodzi, potem piszesz kod, żeby ten test przeszedł.&lt;/div&gt;&lt;div&gt;Cykl TDD (Red - Green - Refactor)&lt;/div&gt;&lt;div&gt;- Red - piszesz test, który na początku się nie udaje (bo nie ma jeszcze implementacji)&lt;/div&gt;&lt;div&gt;- Green - piszesz minimalny kod, żeby test przeszedł&lt;/div&gt;&lt;div&gt;- Refactor - poprawiasz kod, utrzymując zielone testy&lt;/div&gt;" style="text;html=1;align=left;verticalAlign=top;whiteSpace=wrap;rounded=0;fontSize=15;" parent="1" vertex="1">
          <mxGeometry x="45" y="355" width="750" height="270" as="geometry" />
        </mxCell>
      </root>
    </mxGraphModel>
  </diagram>
  <diagram id="jv8ZojGGQ40Xz1LvVSLw" name="Założenia projektu">
    <mxGraphModel dx="1035" dy="252" grid="0" gridSize="10" guides="1" tooltips="1" connect="1" arrows="1" fold="1" page="1" pageScale="1" pageWidth="827" pageHeight="1169" math="0" shadow="0">
      <root>
        <mxCell id="0" />
        <mxCell id="1" parent="0" />
        <mxCell id="1QX1MxYKSdZRdcjI9AqY-1" value="&lt;div align=&quot;left&quot;&gt;Założenia:&lt;/div&gt;&lt;div&gt;- zapisywanie danych do pliku .csv&lt;/div&gt;&lt;div&gt;- aplikacja CLI&lt;/div&gt;&lt;div&gt;- &lt;br&gt;&lt;/div&gt;" style="text;html=1;align=left;verticalAlign=top;resizable=0;points=[];autosize=1;strokeColor=none;fillColor=none;fontSize=15;" vertex="1" parent="1">
          <mxGeometry x="23" y="22" width="248" height="84" as="geometry" />
        </mxCell>
      </root>
    </mxGraphModel>
  </diagram>
</mxfile>
